HIERARCHY
ROOT Hips
{
	OFFSET 0.000000 89.005402 0.000000
	CHANNELS 6 Xposition Yposition Zposition Xrotation Yrotation Zrotation
	JOINT Spine
	{
		OFFSET 0.116900 10.681000 0.373400
		CHANNELS 3 Xrotation Yrotation Zrotation
		JOINT Spine1
		{
			OFFSET 0.000000 13.840401 0.053500
			CHANNELS 3 Xrotation Yrotation Zrotation
			JOINT Spine2
			{
				OFFSET 0.000000 14.712700 -0.366200
				CHANNELS 3 Xrotation Yrotation Zrotation
				JOINT Neck
				{
					OFFSET 0.000000 35.415497 -3.314200
					CHANNELS 3 Xrotation Yrotation Zrotation
					JOINT Head
					{
						OFFSET 0.000000 16.899200 1.218300
						CHANNELS 3 Xrotation Yrotation Zrotation
						JOINT HeadTop_End
						{
							OFFSET 0.000000 22.206207 2.192500
							CHANNELS 3 Xrotation Yrotation Zrotation
							End Site
							{
								OFFSET 0.000000 22.314178 0.000000
							}
						}
					}
				}
				JOINT LeftShoulder
				{
					OFFSET 12.896400 26.716293 -4.548400
					CHANNELS 3 Xrotation Yrotation Zrotation
					JOINT LeftArm
					{
						OFFSET 19.027000 -4.857010 -1.718400
						CHANNELS 3 Xrotation Yrotation Zrotation
						JOINT LeftForeArm
						{
							OFFSET 24.179897 0.000000 0.000000
							CHANNELS 3 Xrotation Yrotation Zrotation
							JOINT LeftHand
							{
								OFFSET 27.156403 0.000000 0.000000
								CHANNELS 3 Xrotation Yrotation Zrotation
								JOINT LeftHandIndex1
								{
									OFFSET 16.441200 0.000000 0.000000
									CHANNELS 3 Xrotation Yrotation Zrotation
									JOINT LeftHandIndex2
									{
										OFFSET 4.821899 0.000000 0.000000
										CHANNELS 3 Xrotation Yrotation Zrotation
										JOINT LeftHandIndex3
										{
											OFFSET 6.386497 0.000000 0.000000
											CHANNELS 3 Xrotation Yrotation Zrotation
											JOINT LeftHandIndex4
											{
												OFFSET 5.188988 0.000000 0.000000
												CHANNELS 3 Xrotation Yrotation Zrotation
												End Site
												{
													OFFSET -0.178703 5.185913 0.000177
												}
											}
										}
									}
								}
								JOINT LeftHandThumb1
								{
									OFFSET 6.534897 -5.032593 5.900300
									CHANNELS 3 Xrotation Yrotation Zrotation
									JOINT LeftHandThumb2
									{
										OFFSET 3.818176 -2.204422 2.204423
										CHANNELS 3 Xrotation Yrotation Zrotation
										JOINT LeftHandThumb3
										{
											OFFSET 3.252098 -1.877594 1.877601
											CHANNELS 3 Xrotation Yrotation Zrotation
											JOINT LeftHandThumb4
											{
												OFFSET 5.251778 -3.032120 3.032117
												CHANNELS 3 Xrotation Yrotation Zrotation
												End Site
												{
													OFFSET 0.000023 6.780014 0.000000
												}
											}
										}
									}
								}
							}
						}
					}
				}
				JOINT RightShoulder
				{
					OFFSET -12.896300 26.716293 -4.548400
					CHANNELS 3 Xrotation Yrotation Zrotation
					JOINT RightArm
					{
						OFFSET -19.027000 -4.857010 -1.718400
						CHANNELS 3 Xrotation Yrotation Zrotation
						JOINT RightForeArm
						{
							OFFSET -24.179897 0.000000 0.000000
							CHANNELS 3 Xrotation Yrotation Zrotation
							JOINT RightHand
							{
								OFFSET -27.156403 0.000000 0.000000
								CHANNELS 3 Xrotation Yrotation Zrotation
								JOINT RightHandThumb1
								{
									OFFSET -6.591202 -4.852203 5.988100
									CHANNELS 3 Xrotation Yrotation Zrotation
									JOINT RightHandThumb2
									{
										OFFSET -3.818176 -2.204422 2.204423
										CHANNELS 3 Xrotation Yrotation Zrotation
										JOINT RightHandThumb3
										{
											OFFSET -3.252098 -1.877594 1.877601
											CHANNELS 3 Xrotation Yrotation Zrotation
											JOINT RightHandThumb4
											{
												OFFSET -5.251778 -3.032120 3.032117
												CHANNELS 3 Xrotation Yrotation Zrotation
												End Site
												{
													OFFSET -0.000023 6.780014 0.000000
												}
											}
										}
									}
								}
								JOINT RightHandIndex1
								{
									OFFSET -16.029404 0.000000 0.000000
									CHANNELS 3 Xrotation Yrotation Zrotation
									JOINT RightHandIndex2
									{
										OFFSET -5.213303 0.000000 0.000000
										CHANNELS 3 Xrotation Yrotation Zrotation
										JOINT RightHandIndex3
										{
											OFFSET -6.386528 0.000000 0.000000
											CHANNELS 3 Xrotation Yrotation Zrotation
											JOINT RightHandIndex4
											{
												OFFSET -5.189026 0.000000 0.000000
												CHANNELS 3 Xrotation Yrotation Zrotation
												End Site
												{
													OFFSET 0.236702 5.183624 0.001972
												}
											}
										}
									}
								}
							}
						}
					}
				}
			}
		}
	}
	JOINT LeftUpLeg
	{
		OFFSET 14.073000 -7.904099 -1.463000
		CHANNELS 3 Xrotation Yrotation Zrotation
		JOINT LeftLeg
		{
			OFFSET -0.109806 -34.073280 4.093200
			CHANNELS 3 Xrotation Yrotation Zrotation
			JOINT LeftFoot
			{
				OFFSET 0.109806 -29.899420 -6.319000
				CHANNELS 3 Xrotation Yrotation Zrotation
				JOINT LeftToeBase
				{
					OFFSET 1.551100 -14.988700 20.535801
					CHANNELS 3 Xrotation Yrotation Zrotation
					JOINT LeftToe_End
					{
						OFFSET 0.221200 0.570800 13.248301
						CHANNELS 3 Xrotation Yrotation Zrotation
						End Site
						{
							OFFSET 0.000000 13.262435 0.000000
						}
					}
				}
			}
		}
	}
	JOINT RightUpLeg
	{
		OFFSET -13.839300 -7.904099 -1.463000
		CHANNELS 3 Xrotation Yrotation Zrotation
		JOINT RightLeg
		{
			OFFSET 0.109694 -34.073219 4.093300
			CHANNELS 3 Xrotation Yrotation Zrotation
			JOINT RightFoot
			{
				OFFSET -0.109694 -29.899384 -6.319200
				CHANNELS 3 Xrotation Yrotation Zrotation
				JOINT RightToeBase
				{
					OFFSET -1.551100 -14.988700 20.535801
					CHANNELS 3 Xrotation Yrotation Zrotation
					JOINT RightToe_End
					{
						OFFSET -0.221200 0.570900 13.248299
						CHANNELS 3 Xrotation Yrotation Zrotation
						End Site
						{
							OFFSET 0.000000 13.262440 0.000000
						}
					}
				}
			}
		}
	}
}
MOTION
Frames: 4
Frame Time: 0.033333
94.620033 60.532448 -0.481771 -0.080785 30.254446 -4.943620 11.319203 -5.227661 1.378998 22.793832 -8.683189 3.230205 22.793822 -8.683196 3.230215 -5.369306 20.136461 -10.383762 -22.775599 44.686485 5.248156 -0.000003 0.000001 -0.000001 2.849251 -5.887651 -30.609247 -20.380970 -17.348566 5.734947 25.429359 -26.989108 -10.236930 12.474980 -12.368561 7.473388 0.765244 -5.978902 -10.202135 -1.269664 -0.758810 -32.580774 0.000004 -0.000008 -0.000005 -0.000000 -0.000001 -0.000002 -7.577633 0.296234 7.593207 6.725504 2.975617 0.280212 0.000015 0.000005 -0.000021 0.000003 0.000002 -0.000000 1.878110 -2.145049 4.122563 -7.614969 -14.006415 16.301684 40.507892 48.719637 -1.814913 32.335212 7.746888 -13.285568 3.421222 8.261235 -8.802198 9.868371 -15.648259 -4.005313 0.000011 -0.000005 0.000007 0.000000 -0.000002 -0.000002 -1.818319 5.243650 14.447202 -1.244272 0.038704 32.971526 -0.000002 0.000005 -0.000001 0.000003 0.000001 -0.000003 -4.077801 38.358301 -9.854583 79.984193 -20.980560 -8.920975 -47.025856 -27.100563 40.855231 -19.396279 -14.118699 26.099732 0.000001 -0.000002 -0.000002 -63.663285 -7.421616 22.822292 64.082214 -40.120227 15.012443 -5.862502 1.970634 -21.874015 -2.345205 -3.161963 -4.450559 0.000000 0.000000 0.000000 
97.730629 60.513443 -0.161231 1.264153 30.271337 -7.092748 11.181037 -4.939366 1.617244 22.520095 -8.135119 3.663439 22.520102 -8.135113 3.663433 -5.655897 20.065860 -9.257429 -22.106431 45.445340 4.877546 0.000001 0.000001 0.000000 2.797701 -5.409556 -30.828342 -20.396463 -17.603443 4.819463 25.582175 -27.330503 -10.223942 12.485694 -12.520645 7.443509 0.806358 -5.949889 -9.051008 -1.195006 -0.643388 -31.459073 -0.000001 -0.000008 -0.000001 0.000000 0.000000 0.000001 -7.938643 -0.273229 7.656134 6.167915 2.197674 0.024305 0.000012 0.000008 -0.000019 0.000003 0.000002 0.000000 1.922489 -1.705409 4.698089 -7.945079 -13.881460 15.338334 41.589097 48.983794 -2.595908 33.194825 7.201823 -13.362597 3.969884 8.755380 -8.283715 9.150771 -15.241437 -4.247390 0.000007 -0.000001 0.000008 0.000000 -0.000001 0.000001 -1.799593 5.318083 13.915670 -1.202515 -0.008212 32.366033 -0.000002 0.000010 0.000006 0.000000 -0.000004 0.000001 -2.343650 39.762370 -10.483090 79.963231 -23.921546 -8.760058 -43.232318 -27.247923 43.441178 -23.640477 -18.821206 36.564294 0.000002 0.000000 -0.000003 -65.320548 -7.427864 22.730979 67.429383 -40.078150 14.197303 -7.695228 1.980503 -19.430234 -1.972184 -3.744995 -3.937572 0.000000 -0.000000 -0.000000 
100.558258 60.245728 0.097812 2.118974 29.631454 -8.699837 11.091659 -4.473681 1.816019 22.286636 -7.523294 3.527569 22.286634 -7.523293 3.527567 -5.630645 19.911376 -8.500708 -22.238698 45.700403 5.191792 -0.000000 0.000001 0.000000 2.749820 -4.864106 -30.728850 -20.259046 -17.631951 4.231777 25.834296 -27.791007 -10.065492 12.539709 -12.875077 7.779696 0.879075 -5.920325 -7.807628 -1.128154 -0.535210 -30.421748 0.000003 -0.000007 -0.000003 0.000002 0.000001 0.000000 -8.328663 -0.521117 7.809645 5.681086 1.443584 -0.214929 0.000012 0.000007 -0.000018 -0.000001 0.000000 0.000000 1.946083 -1.383898 5.000035 -7.414385 -14.144625 15.845914 42.759382 49.523140 -3.319325 33.694358 7.486612 -13.182629 4.499136 9.327524 -7.749252 8.337735 -14.845669 -4.508945 0.000008 0.000001 0.000006 -0.000002 0.000001 0.000003 -1.840799 5.432384 13.707522 -1.158718 -0.055774 31.721816 -0.000003 0.000010 0.000001 0.000004 0.000000 -0.000000 -3.862912 41.071078 -8.044854 83.610654 -31.005975 -9.509883 -35.899119 -25.924089 44.403101 -24.576795 -22.308337 41.599694 -0.000001 0.000002 0.000001 -66.706155 -7.758291 22.465827 70.860644 -39.217368 13.183086 -9.141652 1.853474 -16.281559 -1.709541 -4.613273 -3.143915 0.000000 -0.000000 -0.000000 
103.192604 59.881523 0.394272 2.047443 29.040390 -9.357388 11.092599 -4.184755 2.007290 22.229038 -7.333786 3.219565 22.229025 -7.333780 3.219562 -5.177965 19.762903 -8.127347 -22.096345 45.700123 5.481874 -0.000000 -0.000001 0.000001 2.715266 -4.438586 -30.567159 -20.017696 -17.285377 4.139626 25.994634 -27.937412 -9.960766 12.541143 -13.220400 8.257643 0.983510 -5.916110 -6.517902 -1.070817 -0.438523 -29.509429 0.000004 -0.000006 -0.000005 0.000000 -0.000000 0.000002 -8.561220 -0.323824 7.992144 5.281904 0.635201 -0.352732 0.000012 0.000006 -0.000021 0.000004 0.000000 0.000000 1.973207 -1.243057 5.309780 -6.583590 -14.258448 17.099493 43.654881 50.217514 -3.558292 33.595529 8.121144 -12.904953 4.877014 9.764015 -7.353695 7.709929 -14.465157 -4.710343 0.000009 0.000003 0.000007 -0.000000 -0.000001 -0.000001 -1.863039 5.503469 13.444707 -1.119864 -0.096721 31.169220 -0.000003 0.000003 0.000004 0.000001 -0.000006 -0.000000 -18.850542 40.799616 5.304436 92.677594 -44.648011 -12.566366 -19.661745 -14.587145 33.470864 -23.957947 -24.527641 50.118624 0.000000 -0.000000 -0.000000 -67.251149 -8.009345 22.095816 74.292521 -38.281018 11.891193 -10.793422 1.667529 -13.040195 -1.924764 -5.366728 -3.214048 0.000000 -0.000000 -0.000000 
